<?xml version="1.0" encoding="UTF-8" standalone="no"?> <svg id="Layer_1" data-name="Layer 1" xmlns="http://www.w3.org/2000/svg" viewBox="0 0 128 128"><defs><style>.cls-1{fill:#2d3e50;}</style></defs><title>x</title><path class="cls-1" d="M125.0463,48.16162a5.43254,5.43254,0,0,0-2.16905-3.57047L122.73,44.484,67.05744,15.19282a5.43,5.43,0,0,0-6.1189,0L5.266,44.484l-.14282.10711a5.46324,5.46324,0,0,0-1.1827,7.62742,5.47169,5.47169,0,0,0,7.4578,1.30321l6.84192-3.55709v60.73814a3.05045,3.05045,0,0,0,3.05276,3.04829h85.4145a3.04949,3.04949,0,0,0,3.04829-3.04829V49.9647l6.84192,3.55263a5.42091,5.42091,0,0,0,3.04829.93724,5.494,5.494,0,0,0,4.40953-2.236A5.41361,5.41361,0,0,0,125.0463,48.16162ZM67.54753,94.54115A5.24543,5.24543,0,1,1,69.085,90.83384,5.20968,5.20968,0,0,1,67.54753,94.54115Zm5.544-12.77251-.99082-.62035-.0714-.058a12.74658,12.74658,0,0,0-16.37953-.00447l-.94617.79888-6.52056-6.50719,1.06666-.95064A21.98765,21.98765,0,0,1,78.416,74.42243l1.06666.95064ZM91.15363,63.70656l-5.52977,5.53868-.95508-.88368a30.67456,30.67456,0,0,0-41.65845-.00447l-.95511.88368-6.51163-6.525,1.0131-.95508a39.92259,39.92259,0,0,1,54.56121,0l.04465.04462.87921.99973Z"/></svg>